# xmcd
#
# Track frame offsets:
#   150
#   12387
#   21072
#   29292
#   38163
#   45174
#   57219
#   66797
#   73274
#   85029
#   97285
#   108252
#   118130
#   122628
#   129279
#   136277
#
# Disc length: 1938 seconds
#
# Revision: 0
# Processed by: cddbd v1.5.2PL0 Copyright (c) Steve Scherf et al.
# Submitted via: uFREEDB ActiveX Control 1.5
#
DISCID=d5079010
DTITLE=Serra Norte - O Forte do Forró
DYEAR=2000
DGENRE=Country
TTITLE0=Vizinha Assanhada
TTITLE1=Danado Dela
TTITLE2=O Neném
TTITLE3=Neném Mulher
TTITLE4=Petrolina Juazeiro
TTITLE5=Amargo que nem Jiló
TTITLE6=Forró em Limoeiro
TTITLE7=O Canto da Ema
TTITLE8=Lamento Sertanejo
TTITLE9=Nem Se Despediu de Mim
TTITLE10=São João na Roça
TTITLE11=Olha Pro Céu
TTITLE12=Fogo sem Fuzil
TTITLE13=Quero Chá
TTITLE14=Na Emenda
TTITLE15=Tem, Tem no Arraiá
EXTD=
EXTT0=
EXTT1=
EXTT2=
EXTT3=
EXTT4=
EXTT5=
EXTT6=
EXTT7=
EXTT8=
EXTT9=
EXTT10=
EXTT11=
EXTT12=
EXTT13=
EXTT14=
EXTT15=
PLAYORDER=
